<svg xmlns="http://www.w3.org/2000/svg" xmlns:xlink="http://www.w3.org/1999/xlink" width="1080" zoomAndPan="magnify" viewBox="0 0 810 809.999993" height="1080" preserveAspectRatio="xMidYMid meet" version="1.0"><defs><clipPath id="3ef7733f3f"><path d="M 97 676 L 119 676 L 119 697.5 L 97 697.5 Z M 97 676 " clip-rule="nonzero"/></clipPath></defs><path fill="#203239" d="M 785.601562 374.742188 L 640.628906 229.792969 C 636.695312 225.863281 631.363281 223.652344 625.800781 223.652344 L 507.234375 223.652344 C 498.765625 223.652344 491.121094 228.761719 487.878906 236.585938 C 484.636719 244.425781 486.429688 253.433594 492.414062 259.4375 L 622.574219 389.5625 L 492.414062 519.699219 C 486.421875 525.6875 484.628906 534.691406 487.878906 542.527344 C 491.121094 550.355469 498.765625 555.46875 507.234375 555.46875 L 625.800781 555.46875 C 631.363281 555.46875 636.695312 553.261719 640.628906 549.324219 L 785.601562 404.375 C 789.527344 400.449219 791.738281 395.121094 791.738281 389.5625 C 791.738281 384 789.523438 378.667969 785.601562 374.742188 Z M 785.601562 374.742188 " fill-opacity="1" fill-rule="nonzero"/><path fill="#eeedde" d="M 676.71875 404.375 C 680.644531 400.449219 682.851562 395.121094 682.851562 389.5625 C 682.851562 384 680.644531 378.667969 676.71875 374.742188 L 531.742188 229.792969 C 527.8125 225.863281 522.480469 223.652344 516.917969 223.652344 L 507.234375 223.652344 C 498.765625 223.652344 491.121094 228.761719 487.878906 236.585938 C 484.636719 244.425781 486.429688 253.433594 492.414062 259.4375 L 622.574219 389.5625 L 492.414062 519.699219 C 486.421875 525.6875 484.628906 534.691406 487.878906 542.527344 C 491.121094 550.355469 498.765625 555.46875 507.234375 555.46875 L 516.917969 555.46875 C 522.480469 555.46875 527.8125 553.261719 531.742188 549.324219 Z M 676.71875 404.375 " fill-opacity="1" fill-rule="nonzero"/><path fill="#141e27" d="M 314.9375 236.585938 C 311.695312 228.761719 304.046875 223.652344 295.578125 223.652344 L 177.011719 223.652344 C 171.449219 223.652344 166.121094 225.863281 162.183594 229.792969 L 17.210938 374.742188 C 13.285156 378.667969 11.074219 384 11.074219 389.5625 C 11.074219 395.121094 13.285156 400.449219 17.210938 404.375 L 162.183594 549.324219 C 166.121094 553.261719 171.449219 555.46875 177.011719 555.46875 L 295.578125 555.46875 C 304.046875 555.46875 311.695312 550.355469 314.9375 542.527344 C 318.175781 534.691406 316.386719 525.6875 310.398438 519.699219 L 180.246094 389.5625 L 310.398438 259.4375 C 316.386719 253.433594 318.183594 244.425781 314.9375 236.585938 Z M 314.9375 236.585938 " fill-opacity="1" fill-rule="nonzero"/><path fill="#e0ddaa" d="M 314.9375 542.527344 C 318.175781 534.691406 316.386719 525.6875 310.398438 519.699219 L 180.246094 389.5625 L 310.398438 259.4375 C 316.390625 253.433594 318.183594 244.425781 314.9375 236.585938 C 311.695312 228.761719 304.046875 223.652344 295.578125 223.652344 L 285.898438 223.652344 C 280.335938 223.652344 275.007812 225.863281 271.070312 229.792969 L 126.097656 374.742188 C 122.171875 378.667969 119.960938 384 119.960938 389.5625 C 119.960938 395.121094 122.171875 400.449219 126.097656 404.375 L 271.070312 549.324219 C 275.007812 553.261719 280.335938 555.46875 285.898438 555.46875 L 295.578125 555.46875 C 304.046875 555.46875 311.695312 550.355469 314.9375 542.527344 Z M 314.9375 542.527344 " fill-opacity="1" fill-rule="nonzero"/><path stroke-linecap="round" transform="matrix(6.222053, 0, 0, 6.220989, -14.677478, -30.355672)" fill="none" stroke-linejoin="round" d="M 129.879782 65.117921 L 106.579972 41.817892 C 105.94777 41.18621 105.090813 40.830811 104.196815 40.830811 L 85.140982 40.830811 C 83.779895 40.830811 82.551277 41.652123 82.030197 42.909836 C 81.509117 44.170061 81.79728 45.618032 82.759081 46.583137 L 103.678246 67.500229 L 82.759081 88.419206 C 81.796025 89.381799 81.507861 90.829142 82.030197 92.088739 C 82.551277 93.34708 83.779895 94.16902 85.140982 94.16902 L 104.196815 94.16902 C 105.090813 94.16902 105.94777 93.814249 106.579972 93.181311 L 129.879782 69.881282 C 130.510729 69.250228 130.866067 68.393752 130.866067 67.500229 C 130.866067 66.606079 130.510101 65.748976 129.879782 65.117921 Z M 129.879782 65.117921 " stroke="#33363a" stroke-width="3" stroke-opacity="1" stroke-miterlimit="10"/><path stroke-linecap="round" transform="matrix(6.222053, 0, 0, 6.220989, -14.677478, -30.355672)" fill="none" stroke-linejoin="round" d="M 108.669942 62.500145 L 87.750776 83.419122 " stroke="#33363a" stroke-width="3" stroke-opacity="1" stroke-miterlimit="10"/><path stroke-linecap="round" transform="matrix(6.222053, 0, 0, 6.220989, -14.677478, -30.355672)" fill="none" stroke-linejoin="round" d="M 52.975277 42.909836 C 52.454197 41.652123 51.22495 40.830811 49.863864 40.830811 L 30.80803 40.830811 C 29.914033 40.830811 29.057704 41.18621 28.424874 41.817892 L 5.125063 65.117921 C 4.494117 65.748976 4.138778 66.606079 4.138778 67.500229 C 4.138778 68.393752 4.494117 69.250228 5.125063 69.881282 L 28.424874 93.181311 C 29.057704 93.814249 29.914033 94.16902 30.80803 94.16902 L 49.863864 94.16902 C 51.22495 94.16902 52.454197 93.34708 52.975277 92.088739 C 53.495729 90.829142 53.208193 89.381799 52.245765 88.419206 L 31.327855 67.500229 L 52.245765 46.583137 C 53.208193 45.618032 53.496985 44.170061 52.975277 42.909836 Z M 52.975277 42.909836 " stroke="#33363a" stroke-width="3" stroke-opacity="1" stroke-miterlimit="10"/><path stroke-linecap="round" transform="matrix(6.222053, 0, 0, 6.220989, -14.677478, -30.355672)" fill="none" stroke-linejoin="round" d="M 26.327998 72.500314 L 47.245908 51.583221 " stroke="#33363a" stroke-width="3" stroke-opacity="1" stroke-miterlimit="10"/><path stroke-linecap="round" transform="matrix(6.222053, 0, 0, 6.220989, -14.677478, -30.355672)" fill="none" stroke-linejoin="round" d="M 57.040957 77.958776 L 77.958239 57.041055 " stroke="#33363a" stroke-width="3" stroke-opacity="1" stroke-miterlimit="10"/><path stroke-linecap="round" transform="matrix(6.222053, 0, 0, 6.220989, -14.677478, -30.355672)" fill="none" stroke-linejoin="round" d="M 101.399934 33.601001 L 103.788741 31.211786 " stroke="#33363a" stroke-width="3" stroke-opacity="1" stroke-miterlimit="10"/><path stroke-linecap="round" transform="matrix(6.222053, 0, 0, 6.220989, -14.677478, -30.355672)" fill="none" stroke-linejoin="round" d="M 108.190297 26.811988 L 108.438281 26.562078 " stroke="#33363a" stroke-width="3" stroke-opacity="1" stroke-miterlimit="10"/><path stroke-linecap="round" transform="matrix(6.222053, 0, 0, 6.220989, -14.677478, -30.355672)" fill="none" stroke-linejoin="round" d="M 111.680278 23.320783 L 111.928262 23.070873 " stroke="#33363a" stroke-width="3" stroke-opacity="1" stroke-miterlimit="10"/><path stroke-linecap="round" transform="matrix(6.222053, 0, 0, 6.220989, -14.677478, -30.355672)" fill="none" stroke-linejoin="round" d="M 115.170258 19.832717 L 115.41887 19.582807 " stroke="#33363a" stroke-width="3" stroke-opacity="1" stroke-miterlimit="10"/><path stroke-linecap="round" transform="matrix(6.222053, 0, 0, 6.220989, -14.677478, -30.355672)" fill="none" stroke-linejoin="round" d="M 33.599262 101.400085 L 31.209827 103.789301 " stroke="#33363a" stroke-width="3" stroke-opacity="1" stroke-miterlimit="10"/><path stroke-linecap="round" transform="matrix(6.222053, 0, 0, 6.220989, -14.677478, -30.355672)" fill="none" stroke-linejoin="round" d="M 26.808898 108.189727 L 26.560914 108.440265 " stroke="#33363a" stroke-width="3" stroke-opacity="1" stroke-miterlimit="10"/><path stroke-linecap="round" transform="matrix(6.222053, 0, 0, 6.220989, -14.677478, -30.355672)" fill="none" stroke-linejoin="round" d="M 23.320173 111.680304 L 23.072189 111.930214 " stroke="#33363a" stroke-width="3" stroke-opacity="1" stroke-miterlimit="10"/><g clip-path="url(#3ef7733f3f)"><path stroke-linecap="round" transform="matrix(6.222053, 0, 0, 6.220989, -14.677478, -30.355672)" fill="none" stroke-linejoin="round" d="M 19.830821 115.170254 L 19.582837 115.420164 " stroke="#33363a" stroke-width="3" stroke-opacity="1" stroke-miterlimit="10"/></g></svg>